<svg xmlns="http://www.w3.org/2000/svg" viewBox="0 0 900 2200" role="img" aria-label="long image">
  <rect width="900" height="2200" fill="#eef8ff"/>
  <rect x="90" y="100" width="720" height="460" rx="34" fill="#fff"/>
  <rect x="132" y="160" width="430" height="32" rx="16" fill="#00aeec" opacity=".76"/>
  <rect x="132" y="230" width="610" height="22" rx="11" fill="#d8e3f0"/>
  <rect x="132" y="272" width="560" height="22" rx="11" fill="#d8e3f0"/>
  <rect x="90" y="640" width="720" height="1180" rx="34" fill="#fff" opacity=".8"/>
  <g fill="#d8e3f0">
    <rect x="132" y="720" width="590" height="22" rx="11"/>
    <rect x="132" y="780" width="620" height="22" rx="11"/>
    <rect x="132" y="840" width="520" height="22" rx="11"/>
    <rect x="132" y="1060" width="600" height="22" rx="11"/>
    <rect x="132" y="1120" width="490" height="22" rx="11"/>
    <rect x="132" y="1340" width="620" height="22" rx="11"/>
    <rect x="132" y="1400" width="560" height="22" rx="11"/>
  </g>
</svg>
