<svg xmlns="http://www.w3.org/2000/svg" viewBox="0 0 32 32" aria-hidden="true">
  <path fill="#00aeec" d="M8.4 4.5c-.7-1.1-1.8-1.7-2.6-1.3-.8.5-.9 1.8-.2 3l.9 1.5A6.8 6.8 0 0 0 2 14.1v6.1c0 3.9 3.1 7 7 7h9.6l5.7 3.7c.9.6 2.1-.1 2.1-1.2v-3.1A6.9 6.9 0 0 0 30 20.2v-6.1a6.8 6.8 0 0 0-4.5-6.4l.9-1.5c.7-1.2.6-2.5-.2-3-.8-.4-1.9.2-2.6 1.3l-1.5 2.6H9.9L8.4 4.5Z"/>
  <path fill="#fff" d="M13.5 10.3c.7.1 1.1.7 1 1.4l-.3 2h4.3l.4-2.3c.1-.7.7-1.1 1.4-1 .7.1 1.1.7 1 1.4l-.3 1.9h1.1c.7 0 1.2.5 1.2 1.2s-.5 1.2-1.2 1.2h-1.5l-.6 3.7h1.4c.7 0 1.2.5 1.2 1.2s-.5 1.2-1.2 1.2h-1.8l-.4 2.4c-.1.7-.7 1.1-1.4 1-.7-.1-1.1-.7-1-1.4l.3-2H13l-.4 2.4c-.1.7-.7 1.1-1.4 1-.7-.1-1.1-.7-1-1.4l.3-2H8.9c-.7 0-1.2-.5-1.2-1.2s.5-1.2 1.2-1.2H11l.6-3.7H9.7c-.7 0-1.2-.5-1.2-1.2s.5-1.2 1.2-1.2H12l.4-2.3c.1-.7.7-1.1 1.1-1.1Zm.3 5.8-.6 3.7h4.3l.6-3.7h-4.3Z"/>
</svg>
